# xmcd
#
# Track frame offsets: 
#        150
#        15842
#        33047
#        52477
#        66955
#        90010
#        110755
#        136138
#
# Disc length: 1989 seconds
#
# Revision: 0
# Processed by: cddbd v1.5.2PL0 Copyright (c) Steve Scherf et al.
# Submitted via: ExactAudioCopyFreeDBPlugin 1.0
#
DISCID=5d07c308
DTITLE=Durand Jones and The Indications - Durand Jones and The Indications
DYEAR=2018
DGENRE=R&B
TTITLE0=Make A Change
TTITLE1=Smile
TTITLE2=Can't Keep My Cool
TTITLE3=Groovy Babe
TTITLE4=Giving Up
TTITLE5=Is It Any Wonder?
TTITLE6=Now I'm Gone
TTITLE7=Tuck N Roll
EXTD=
EXTT0=
EXTT1=
EXTT2=
EXTT3=
EXTT4=
EXTT5=
EXTT6=
EXTT7=
PLAYORDER=
